<?xml version="1.0" encoding="utf-8"?>
<!-- Generator: Adobe Illustrator 19.0.0, SVG Export Plug-In . SVG Version: 6.00 Build 0)  -->
<svg version="1.1" id="Layer_1" xmlns="http://www.w3.org/2000/svg" xmlns:xlink="http://www.w3.org/1999/xlink" x="0px" y="0px"
	 viewBox="-186 277 239 239" style="enable-background:new -186 277 239 239;" xml:space="preserve">
<style type="text/css">
	.st0{opacity:0.2;}
	.st1{fill:#B2B2B2;}
	.st2{filter:url(#Adobe_OpacityMaskFilter);}
	.st3{fill:url(#XMLID_282_);}
	.st4{mask:url(#XMLID_281_);}
	.st5{filter:url(#Adobe_OpacityMaskFilter_1_);}
	.st6{fill:url(#XMLID_284_);}
	.st7{mask:url(#XMLID_283_);}
	.st8{filter:url(#Adobe_OpacityMaskFilter_2_);}
	.st9{fill:url(#XMLID_286_);}
	.st10{mask:url(#XMLID_285_);}
	.st11{opacity:0.15;}
	.st12{fill:#80F9F6;}
	.st13{filter:url(#Adobe_OpacityMaskFilter_3_);}
	.st14{fill:url(#XMLID_288_);}
	.st15{mask:url(#XMLID_287_);}
	.st16{filter:url(#Adobe_OpacityMaskFilter_4_);}
	.st17{fill:url(#XMLID_290_);}
	.st18{mask:url(#XMLID_289_);}
	.st19{filter:url(#Adobe_OpacityMaskFilter_5_);}
	.st20{fill:url(#XMLID_292_);}
	.st21{mask:url(#XMLID_291_);}
	.st22{fill:#FFEC00;}
	.st23{filter:url(#Adobe_OpacityMaskFilter_6_);}
	.st24{fill:url(#XMLID_294_);}
	.st25{mask:url(#XMLID_293_);fill:#FFEC00;}
	.st26{filter:url(#Adobe_OpacityMaskFilter_7_);}
	.st27{fill:url(#XMLID_296_);}
	.st28{mask:url(#XMLID_295_);fill:#FFEC00;}
	.st29{filter:url(#Adobe_OpacityMaskFilter_8_);}
	.st30{fill:url(#XMLID_298_);}
	.st31{mask:url(#XMLID_297_);fill:#FFEC00;}
</style>
<g id="XMLID_32_" class="st0">
	<g id="XMLID_43_">
		<path id="XMLID_47_" class="st1" d="M25.6,484h-2.7c-0.4,0-0.7,0.3-0.7,0.7v1.4c0,0.4,0.3,0.7,0.7,0.7h2.7c0.4,0,0.7-0.3,0.7-0.7
			v-1.4C26.3,484.3,26,484,25.6,484z M25.8,486.1c0,0.1-0.1,0.2-0.2,0.2h-2.7c-0.1,0-0.2-0.1-0.2-0.2v-1.4c0-0.1,0.1-0.2,0.2-0.2
			h2.7c0.1,0,0.2,0.1,0.2,0.2V486.1z"/>
		<path id="XMLID_44_" class="st1" d="M29.4,485.4H18.9c-0.4,0-0.7,0.3-0.7,0.7v6.1c0,0.4,0.3,0.7,0.7,0.7h10.5
			c0.4,0,0.7-0.3,0.7-0.7v-6.1C30.1,485.8,29.8,485.4,29.4,485.4z M25.9,489.5h-1.2v1.2h-0.9v-1.2h-1.2v-0.9h1.2v-1.2h0.9v1.2h1.2
			V489.5z"/>
	</g>
	<defs>
		<filter id="Adobe_OpacityMaskFilter" filterUnits="userSpaceOnUse" x="18.2" y="493" width="11.9" height="9">
			<feColorMatrix  type="matrix" values="1 0 0 0 0  0 1 0 0 0  0 0 1 0 0  0 0 0 1 0"/>
		</filter>
	</defs>
	<mask maskUnits="userSpaceOnUse" x="18.2" y="493" width="11.9" height="9" id="XMLID_281_">
		<g id="XMLID_33_" class="st2">
			<linearGradient id="XMLID_282_" gradientUnits="userSpaceOnUse" x1="24.1449" y1="504.1123" x2="24.1449" y2="492.9708">
				<stop  offset="0.5435" style="stop-color:#000000"/>
				<stop  offset="0.6507" style="stop-color:#030303"/>
				<stop  offset="0.7402" style="stop-color:#0E0E0E"/>
				<stop  offset="0.8232" style="stop-color:#1F1F1F"/>
				<stop  offset="0.9024" style="stop-color:#373737"/>
				<stop  offset="0.9782" style="stop-color:#575757"/>
				<stop  offset="1" style="stop-color:#616161"/>
			</linearGradient>
			<rect id="XMLID_5_" x="17.6" y="493" class="st3" width="13.1" height="11.1"/>
		</g>
	</mask>
	<g id="XMLID_35_" class="st4">
		<path id="XMLID_39_" class="st1" d="M26.3,501.3v-1.4c0-0.4-0.3-0.7-0.7-0.7h-2.7c-0.4,0-0.7,0.3-0.7,0.7v1.4
			c0,0.4,0.3,0.7,0.7,0.7h2.7C26,502,26.3,501.7,26.3,501.3z M25.8,501.3c0,0.1-0.1,0.2-0.2,0.2h-2.7c-0.1,0-0.2-0.1-0.2-0.2v-1.4
			c0-0.1,0.1-0.2,0.2-0.2h2.7c0.1,0,0.2,0.1,0.2,0.2V501.3z"/>
		<path id="XMLID_36_" class="st1" d="M30.1,499.8v-6.1c0-0.4-0.3-0.7-0.7-0.7H18.9c-0.4,0-0.7,0.3-0.7,0.7v6.1
			c0,0.4,0.3,0.7,0.7,0.7h10.5C29.8,500.5,30.1,500.2,30.1,499.8z M25.9,497.4h-1.2v1.2h-0.9v-1.2h-1.2v-0.9h1.2v-1.2h0.9v1.2h1.2
			V497.4z"/>
	</g>
</g>
<g id="XMLID_1_" class="st0">
	<g id="XMLID_11_">
		<path id="XMLID_15_" class="st1" d="M25.9,295.7h-2.7c-0.4,0-0.7,0.3-0.7,0.7v1.4c0,0.4,0.3,0.7,0.7,0.7h2.7
			c0.4,0,0.7-0.3,0.7-0.7v-1.4C26.6,296.1,26.3,295.7,25.9,295.7z M26.1,297.8c0,0.1-0.1,0.2-0.2,0.2h-2.7c-0.1,0-0.2-0.1-0.2-0.2
			v-1.4c0-0.1,0.1-0.2,0.2-0.2h2.7c0.1,0,0.2,0.1,0.2,0.2V297.8z"/>
		<path id="XMLID_12_" class="st1" d="M29.7,297.2H19.2c-0.4,0-0.7,0.3-0.7,0.7v6.1c0,0.4,0.3,0.7,0.7,0.7h10.5
			c0.4,0,0.7-0.3,0.7-0.7v-6.1C30.4,297.5,30.1,297.2,29.7,297.2z M26.2,301.3H25v1.2h-0.9v-1.2h-1.2v-0.9h1.2v-1.2H25v1.2h1.2
			V301.3z"/>
	</g>
	<defs>
		<filter id="Adobe_OpacityMaskFilter_1_" filterUnits="userSpaceOnUse" x="18.5" y="304.7" width="11.9" height="9">
			<feColorMatrix  type="matrix" values="1 0 0 0 0  0 1 0 0 0  0 0 1 0 0  0 0 0 1 0"/>
		</filter>
	</defs>
	<mask maskUnits="userSpaceOnUse" x="18.5" y="304.7" width="11.9" height="9" id="XMLID_283_">
		<g id="XMLID_16_" class="st5">
			<linearGradient id="XMLID_284_" gradientUnits="userSpaceOnUse" x1="24.4782" y1="315.8742" x2="24.4782" y2="304.7326">
				<stop  offset="0.5435" style="stop-color:#000000"/>
				<stop  offset="0.6507" style="stop-color:#030303"/>
				<stop  offset="0.7402" style="stop-color:#0E0E0E"/>
				<stop  offset="0.8232" style="stop-color:#1F1F1F"/>
				<stop  offset="0.9024" style="stop-color:#373737"/>
				<stop  offset="0.9782" style="stop-color:#575757"/>
				<stop  offset="1" style="stop-color:#616161"/>
			</linearGradient>
			<rect id="XMLID_17_" x="17.9" y="304.7" class="st6" width="13.1" height="11.1"/>
		</g>
	</mask>
	<g id="XMLID_2_" class="st7">
		<path id="XMLID_7_" class="st1" d="M26.6,313v-1.4c0-0.4-0.3-0.7-0.7-0.7h-2.7c-0.4,0-0.7,0.3-0.7,0.7v1.4c0,0.4,0.3,0.7,0.7,0.7
			h2.7C26.3,313.8,26.6,313.4,26.6,313z M26.2,313c0,0.1-0.1,0.2-0.2,0.2h-2.7c-0.1,0-0.2-0.1-0.2-0.2v-1.4c0-0.1,0.1-0.2,0.2-0.2
			h2.7c0.1,0,0.2,0.1,0.2,0.2V313z"/>
		<path id="XMLID_3_" class="st1" d="M30.5,311.6v-6.1c0-0.4-0.3-0.7-0.7-0.7H19.2c-0.4,0-0.7,0.3-0.7,0.7v6.1
			c0,0.4,0.3,0.7,0.7,0.7h10.5C30.1,312.3,30.5,312,30.5,311.6z M26.3,309.2H25v1.2h-0.9v-1.2h-1.2v-0.9h1.2V307H25v1.2h1.2V309.2z"
			/>
	</g>
</g>
<g id="XMLID_21_" class="st0">
	<g id="XMLID_50_">
		<path id="XMLID_54_" class="st1" d="M-167.6,316.7h-2.7c-0.4,0-0.7,0.3-0.7,0.7v1.4c0,0.4,0.3,0.7,0.7,0.7h2.7
			c0.4,0,0.7-0.3,0.7-0.7v-1.4C-166.9,317-167.2,316.7-167.6,316.7z M-167.4,318.8c0,0.1-0.1,0.2-0.2,0.2h-2.7
			c-0.1,0-0.2-0.1-0.2-0.2v-1.4c0-0.1,0.1-0.2,0.2-0.2h2.7c0.1,0,0.2,0.1,0.2,0.2V318.8z"/>
		<path id="XMLID_51_" class="st1" d="M-163.8,318.1h-10.5c-0.4,0-0.7,0.3-0.7,0.7v6.1c0,0.4,0.3,0.7,0.7,0.7h10.5
			c0.4,0,0.7-0.3,0.7-0.7v-6.1C-163.1,318.4-163.4,318.1-163.8,318.1z M-167.3,322.2h-1.2v1.2h-0.9v-1.2h-1.2v-0.9h1.2V320h0.9v1.2
			h1.2V322.2z"/>
	</g>
	<defs>
		<filter id="Adobe_OpacityMaskFilter_2_" filterUnits="userSpaceOnUse" x="-175" y="325.7" width="11.9" height="9">
			<feColorMatrix  type="matrix" values="1 0 0 0 0  0 1 0 0 0  0 0 1 0 0  0 0 0 1 0"/>
		</filter>
	</defs>
	<mask maskUnits="userSpaceOnUse" x="-175" y="325.7" width="11.9" height="9" id="XMLID_285_">
		<g id="XMLID_31_" class="st8">
			<linearGradient id="XMLID_286_" gradientUnits="userSpaceOnUse" x1="-169.0284" y1="336.8028" x2="-169.0284" y2="325.6613">
				<stop  offset="0.5435" style="stop-color:#000000"/>
				<stop  offset="0.6507" style="stop-color:#030303"/>
				<stop  offset="0.7402" style="stop-color:#0E0E0E"/>
				<stop  offset="0.8232" style="stop-color:#1F1F1F"/>
				<stop  offset="0.9024" style="stop-color:#373737"/>
				<stop  offset="0.9782" style="stop-color:#575757"/>
				<stop  offset="1" style="stop-color:#616161"/>
			</linearGradient>
			<rect id="XMLID_34_" x="-175.6" y="325.7" class="st9" width="13.1" height="11.1"/>
		</g>
	</mask>
	<g id="XMLID_22_" class="st10">
		<path id="XMLID_42_" class="st1" d="M-166.9,334v-1.4c0-0.4-0.3-0.7-0.7-0.7h-2.7c-0.4,0-0.7,0.3-0.7,0.7v1.4
			c0,0.4,0.3,0.7,0.7,0.7h2.7C-167.2,334.7-166.9,334.4-166.9,334z M-167.4,334c0,0.1-0.1,0.2-0.2,0.2h-2.7c-0.1,0-0.2-0.1-0.2-0.2
			v-1.4c0-0.1,0.1-0.2,0.2-0.2h2.7c0.1,0,0.2,0.1,0.2,0.2V334z"/>
		<path id="XMLID_37_" class="st1" d="M-163,332.5v-6.1c0-0.4-0.3-0.7-0.7-0.7h-10.5c-0.4,0-0.7,0.3-0.7,0.7v6.1
			c0,0.4,0.3,0.7,0.7,0.7h10.5C-163.4,333.2-163,332.9-163,332.5z M-167.3,330.1h-1.2v1.2h-0.9v-1.2h-1.2v-0.9h1.2v-1.2h0.9v1.2h1.2
			V330.1z"/>
	</g>
</g>
<g id="XMLID_88_" class="st11">
	<g id="XMLID_122_">
		<g id="XMLID_150_">
			<g id="XMLID_151_">
				<path id="XMLID_86_" class="st12" d="M28.6,379.1c-0.1-0.1-0.2-0.3-0.2-0.5c0-0.2,0.1-0.5,0.2-0.7c0,0,0.2-0.3,0.4-0.7
					c0.2-0.4,0.5-1,0.7-1.6c0.2-0.6,0.3-1.3,0.3-1.9c0-0.6-0.3-1.1-0.5-1.3c-0.1-0.1-0.1-0.1-0.2-0.2l-0.1-0.1
					c-0.1-0.1-0.1-0.1-0.2-0.2c-0.2-0.3-0.4-0.7-0.5-1.1c-0.1-0.8,0-1.7,0.2-2.4c0.2-0.7,0.5-1.4,0.7-1.8c0.2-0.5,0.4-0.7,0.4-0.7
					c0.3-0.5,0.8-0.8,1-0.6c0.3,0.2,0.3,0.7,0,1.1c0,0-0.6,0.9-1,2.1c-0.2,0.6-0.4,1.2-0.4,1.8c0,0.6,0.2,1,0.4,1.2l0.1,0.1
					c0,0.1,0.1,0.1,0.1,0.2c0.1,0.1,0.2,0.3,0.3,0.4c0.2,0.3,0.3,0.7,0.4,1.1c0.2,0.8,0.1,1.7-0.1,2.5c-0.2,0.8-0.5,1.5-0.7,2
					c-0.2,0.5-0.4,0.8-0.4,0.8c-0.1,0.2-0.3,0.4-0.5,0.5C28.9,379.1,28.7,379.2,28.6,379.1z"/>
			</g>
		</g>
		<g id="XMLID_148_">
			
				<rect id="XMLID_85_" x="28.9" y="369.5" transform="matrix(0.8736 0.4866 -0.4866 0.8736 183.6421 32.1956)" class="st12" width="1.8" height="0.4"/>
		</g>
		<g id="XMLID_146_">
			
				<rect id="XMLID_84_" x="30.8" y="370.4" transform="matrix(0.8736 0.4866 -0.4866 0.8736 184.3058 31.4887)" class="st12" width="1.5" height="0.4"/>
		</g>
		<g id="XMLID_144_">
			
				<rect id="XMLID_83_" x="29.6" y="368.2" transform="matrix(0.8738 0.4863 -0.4863 0.8738 183.0044 31.6626)" class="st12" width="1.7" height="0.4"/>
		</g>
		<g id="XMLID_142_">
			
				<rect id="XMLID_82_" x="31.5" y="369.1" transform="matrix(0.8738 0.4864 -0.4864 0.8738 183.6905 30.957)" class="st12" width="1.5" height="0.4"/>
		</g>
		<g id="XMLID_140_">
			
				<rect id="XMLID_81_" x="30.3" y="367" transform="matrix(0.8736 0.4866 -0.4866 0.8736 182.6058 31.2348)" class="st12" width="1.7" height="0.4"/>
		</g>
		<g id="XMLID_138_">
			
				<rect id="XMLID_80_" x="32.1" y="368" transform="matrix(0.8736 0.4866 -0.4866 0.8736 183.3486 30.4597)" class="st12" width="1.8" height="0.4"/>
		</g>
		<g id="XMLID_136_">
			
				<rect id="XMLID_79_" x="25.5" y="375.6" transform="matrix(0.8736 0.4866 -0.4866 0.8736 186.1976 34.5654)" class="st12" width="2" height="0.4"/>
		</g>
		<g id="XMLID_134_">
			
				<rect id="XMLID_78_" x="27.6" y="376.7" transform="matrix(0.8736 0.4866 -0.4866 0.8736 187.0173 33.6998)" class="st12" width="2" height="0.4"/>
		</g>
		<g id="XMLID_132_">
			
				<rect id="XMLID_77_" x="26.2" y="374.4" transform="matrix(0.8736 0.4866 -0.4866 0.8736 185.6954 34.0581)" class="st12" width="2.1" height="0.4"/>
		</g>
		<g id="XMLID_130_">
			
				<rect id="XMLID_76_" x="28.3" y="375.5" transform="matrix(0.8737 0.4865 -0.4865 0.8737 186.5074 33.1949)" class="st12" width="2.1" height="0.4"/>
		</g>
		<g id="XMLID_128_">
			
				<rect id="XMLID_75_" x="26.9" y="373.1" transform="matrix(0.8737 0.4865 -0.4865 0.8737 185.1598 33.593)" class="st12" width="2" height="0.4"/>
		</g>
		<g id="XMLID_126_">
			
				<rect id="XMLID_74_" x="28.9" y="374.2" transform="matrix(0.8737 0.4865 -0.4865 0.8737 185.9343 32.7523)" class="st12" width="2" height="0.4"/>
		</g>
		<g id="XMLID_123_">
			<g id="XMLID_124_">
				<path id="XMLID_73_" class="st12" d="M24.3,376.8c-0.2-0.1-0.3-0.3-0.4-0.5c-0.1-0.2,0-0.5,0.1-0.7c0,0,0.2-0.3,0.4-0.7
					c0.3-0.4,0.7-1,1.2-1.6c0.5-0.6,1.2-1.2,1.9-1.5c0.4-0.2,0.8-0.3,1.1-0.4c0.3-0.1,0.7-0.1,0.9,0c0.1,0,0.3,0,0.4,0l0.2,0
					c0,0,0.1,0,0.1,0c0.2,0,0.4,0,0.6-0.1c0.5-0.2,1-0.7,1.4-1.2c0.8-1,1.4-2.1,1.4-2.1c0.3-0.5,0.8-0.7,1.2-0.5
					c0.4,0.2,0.5,0.8,0.2,1.3c0,0-0.6,1-1.6,2c-0.5,0.5-1.1,1-1.7,1.4c-0.3,0.2-0.7,0.3-1,0.3c-0.3,0.1-0.6,0-0.9,0l-0.2,0
					c-0.1,0-0.1,0-0.2,0c-0.1,0-0.2,0-0.4,0c-0.3,0-0.6,0.1-0.8,0.2c-0.6,0.2-1.2,0.7-1.6,1.3c-0.5,0.5-0.8,1.1-1,1.6
					c-0.2,0.4-0.4,0.7-0.4,0.7c-0.1,0.2-0.3,0.4-0.5,0.5C24.8,376.9,24.5,376.9,24.3,376.8z"/>
			</g>
		</g>
	</g>
	<defs>
		<filter id="Adobe_OpacityMaskFilter_3_" filterUnits="userSpaceOnUse" x="24" y="379.1" width="11.5" height="14">
			<feColorMatrix  type="matrix" values="1 0 0 0 0  0 1 0 0 0  0 0 1 0 0  0 0 0 1 0"/>
		</filter>
	</defs>
	<mask maskUnits="userSpaceOnUse" x="24" y="379.1" width="11.5" height="14" id="XMLID_287_">
		<g id="XMLID_89_" class="st13">
			<linearGradient id="XMLID_288_" gradientUnits="userSpaceOnUse" x1="26.2884" y1="393.2308" x2="26.2884" y2="379.1276">
				<stop  offset="0.5435" style="stop-color:#000000"/>
				<stop  offset="0.6507" style="stop-color:#030303"/>
				<stop  offset="0.7402" style="stop-color:#0E0E0E"/>
				<stop  offset="0.8232" style="stop-color:#1F1F1F"/>
				<stop  offset="0.9024" style="stop-color:#373737"/>
				<stop  offset="0.9782" style="stop-color:#575757"/>
				<stop  offset="1" style="stop-color:#616161"/>
			</linearGradient>
			<rect id="XMLID_58_" x="18" y="379.1" class="st14" width="16.6" height="14.1"/>
		</g>
	</mask>
	<g id="XMLID_91_" class="st15">
		<g id="XMLID_119_">
			<g id="XMLID_120_">
				<path id="XMLID_72_" class="st12" d="M28.6,379.2c-0.1,0.1-0.2,0.3-0.2,0.5c0,0.2,0.1,0.5,0.2,0.7c0,0,0.2,0.3,0.4,0.7
					c0.2,0.4,0.5,1,0.7,1.6c0.2,0.6,0.3,1.3,0.3,1.9c0,0.6-0.3,1.1-0.5,1.3c-0.1,0.1-0.1,0.1-0.2,0.2l-0.1,0.1
					c-0.1,0.1-0.1,0.1-0.2,0.2c-0.2,0.3-0.4,0.7-0.5,1.1c-0.1,0.8,0,1.7,0.2,2.4c0.2,0.7,0.5,1.4,0.7,1.8c0.2,0.5,0.4,0.7,0.4,0.7
					c0.3,0.5,0.8,0.8,1,0.6c0.3-0.2,0.3-0.7,0-1.1c0,0-0.6-0.9-1-2.1c-0.2-0.6-0.4-1.2-0.4-1.8c0-0.6,0.2-1,0.4-1.2l0.1-0.1
					c0-0.1,0.1-0.1,0.1-0.2c0.1-0.1,0.2-0.3,0.3-0.4c0.2-0.3,0.3-0.7,0.4-1.1c0.2-0.8,0.1-1.7-0.1-2.5c-0.2-0.8-0.5-1.5-0.7-2
					c-0.2-0.5-0.4-0.8-0.4-0.8c-0.1-0.2-0.3-0.4-0.5-0.5C28.9,379.1,28.8,379.1,28.6,379.2z"/>
			</g>
		</g>
		<g id="XMLID_117_">
			
				<rect id="XMLID_71_" x="29" y="388.4" transform="matrix(0.8736 -0.4866 0.4866 0.8736 -185.313 63.6328)" class="st12" width="1.8" height="0.4"/>
		</g>
		<g id="XMLID_115_">
			
				<rect id="XMLID_70_" x="30.8" y="387.5" transform="matrix(0.8736 -0.4867 0.4867 0.8736 -184.675 64.3586)" class="st12" width="1.5" height="0.4"/>
		</g>
		<g id="XMLID_113_">
			
				<rect id="XMLID_69_" x="29.7" y="389.7" transform="matrix(0.8738 -0.4863 0.4863 0.8738 -185.7374 64.0466)" class="st12" width="1.7" height="0.4"/>
		</g>
		<g id="XMLID_111_">
			
				<rect id="XMLID_68_" x="31.5" y="388.7" transform="matrix(0.8737 -0.4864 0.4864 0.8737 -185.0938 64.7786)" class="st12" width="1.5" height="0.4"/>
		</g>
		<g id="XMLID_109_">
			
				<rect id="XMLID_67_" x="30.3" y="390.9" transform="matrix(0.8736 -0.4866 0.4866 0.8736 -186.3628 64.6045)" class="st12" width="1.7" height="0.4"/>
		</g>
		<g id="XMLID_107_">
			
				<rect id="XMLID_66_" x="32.1" y="389.8" transform="matrix(0.8736 -0.4866 0.4866 0.8736 -185.6003 65.3659)" class="st12" width="1.8" height="0.4"/>
		</g>
		<g id="XMLID_105_">
			
				<rect id="XMLID_65_" x="25.6" y="382.3" transform="matrix(0.8737 -0.4865 0.4865 0.8737 -182.7324 61.2499)" class="st12" width="2" height="0.4"/>
		</g>
		<g id="XMLID_103_">
			
				<rect id="XMLID_64_" x="27.6" y="381.2" transform="matrix(0.8736 -0.4866 0.4866 0.8736 -181.9376 62.1299)" class="st12" width="2" height="0.4"/>
		</g>
		<g id="XMLID_101_">
			
				<rect id="XMLID_63_" x="26.2" y="383.5" transform="matrix(0.8736 -0.4866 0.4866 0.8736 -183.2641 61.7756)" class="st12" width="2.1" height="0.4"/>
		</g>
		<g id="XMLID_99_">
			
				<rect id="XMLID_62_" x="28.3" y="382.3" transform="matrix(0.8736 -0.4866 0.4866 0.8736 -182.4172 62.6187)" class="st12" width="2.1" height="0.4"/>
		</g>
		<g id="XMLID_97_">
			
				<rect id="XMLID_61_" x="26.9" y="384.7" transform="matrix(0.8736 -0.4866 0.4866 0.8736 -183.7561 62.2163)" class="st12" width="2" height="0.4"/>
		</g>
		<g id="XMLID_95_">
			
				<rect id="XMLID_60_" x="28.9" y="383.6" transform="matrix(0.8737 -0.4865 0.4865 0.8737 -182.934 63.0275)" class="st12" width="2" height="0.4"/>
		</g>
		<g id="XMLID_92_">
			<g id="XMLID_93_">
				<path id="XMLID_59_" class="st12" d="M24.4,381.4c-0.2,0.1-0.3,0.3-0.4,0.5c-0.1,0.2,0,0.5,0.1,0.7c0,0,0.2,0.3,0.4,0.7
					c0.3,0.4,0.7,1,1.2,1.6c0.5,0.6,1.2,1.2,1.9,1.5c0.4,0.2,0.8,0.3,1.1,0.4c0.3,0.1,0.7,0.1,0.9,0c0.1,0,0.3,0,0.4,0l0.2,0
					c0,0,0.1,0,0.1,0c0.2,0,0.4,0,0.6,0.1c0.5,0.2,1,0.7,1.4,1.2c0.8,1,1.4,2.1,1.4,2.1c0.3,0.5,0.8,0.7,1.2,0.5
					c0.4-0.2,0.5-0.8,0.2-1.3c0,0-0.6-1-1.6-2c-0.5-0.5-1.1-1-1.7-1.4c-0.3-0.2-0.7-0.3-1-0.3c-0.3-0.1-0.6,0-0.9,0l-0.2,0
					c-0.1,0-0.1,0-0.2,0c-0.1,0-0.2,0-0.4,0c-0.3,0-0.6-0.1-0.8-0.2c-0.6-0.2-1.2-0.7-1.6-1.3c-0.5-0.5-0.8-1.1-1-1.6
					c-0.2-0.4-0.4-0.7-0.4-0.7c-0.1-0.2-0.3-0.4-0.5-0.5C24.8,381.3,24.6,381.3,24.4,381.4z"/>
			</g>
		</g>
	</g>
</g>
<g id="XMLID_87_" class="st11">
	<g id="XMLID_157_">
		<g id="XMLID_185_">
			<g id="XMLID_186_">
				<path id="XMLID_187_" class="st12" d="M-77.6,375.7c-0.1-0.1-0.2-0.3-0.2-0.5c0-0.2,0.1-0.5,0.2-0.7c0,0,0.2-0.3,0.4-0.7
					c0.2-0.4,0.5-1,0.7-1.6c0.2-0.6,0.3-1.3,0.3-1.9c0-0.6-0.3-1.1-0.5-1.3c-0.1-0.1-0.1-0.1-0.2-0.2l-0.1-0.1
					c-0.1-0.1-0.1-0.1-0.2-0.2c-0.2-0.3-0.4-0.7-0.5-1.1c-0.1-0.8,0-1.7,0.2-2.4c0.2-0.7,0.5-1.4,0.7-1.8c0.2-0.5,0.4-0.7,0.4-0.7
					c0.3-0.5,0.8-0.8,1-0.6c0.3,0.2,0.3,0.7,0,1.1c0,0-0.6,0.9-1,2.1c-0.2,0.6-0.4,1.2-0.4,1.8c0,0.6,0.2,1,0.4,1.2l0.1,0.1
					c0,0.1,0.1,0.1,0.1,0.2c0.1,0.1,0.2,0.3,0.3,0.4c0.2,0.3,0.3,0.7,0.4,1.1c0.2,0.8,0.1,1.7-0.1,2.5c-0.2,0.8-0.5,1.5-0.7,2
					c-0.2,0.5-0.4,0.8-0.4,0.8c-0.1,0.2-0.3,0.4-0.5,0.5C-77.3,375.8-77.4,375.8-77.6,375.7z"/>
			</g>
		</g>
		<g id="XMLID_183_">
			
				<rect id="XMLID_184_" x="-77.2" y="366.1" transform="matrix(0.8736 0.4866 -0.4866 0.8736 168.582 83.439)" class="st12" width="1.8" height="0.4"/>
		</g>
		<g id="XMLID_181_">
			
				<rect id="XMLID_182_" x="-75.4" y="367" transform="matrix(0.8736 0.4866 -0.4866 0.8736 169.247 82.73)" class="st12" width="1.5" height="0.4"/>
		</g>
		<g id="XMLID_179_">
			
				<rect id="XMLID_180_" x="-76.5" y="364.8" transform="matrix(0.8738 0.4863 -0.4863 0.8738 167.9616 82.8771)" class="st12" width="1.7" height="0.4"/>
		</g>
		<g id="XMLID_177_">
			
				<rect id="XMLID_178_" x="-74.7" y="365.8" transform="matrix(0.8738 0.4864 -0.4864 0.8738 168.6463 82.1739)" class="st12" width="1.5" height="0.4"/>
		</g>
		<g id="XMLID_175_">
			
				<rect id="XMLID_176_" x="-75.9" y="363.6" transform="matrix(0.8736 0.4866 -0.4866 0.8736 167.5472 82.4758)" class="st12" width="1.7" height="0.4"/>
		</g>
		<g id="XMLID_173_">
			
				<rect id="XMLID_174_" x="-74.1" y="364.7" transform="matrix(0.8736 0.4866 -0.4866 0.8736 168.2897 81.7013)" class="st12" width="1.8" height="0.4"/>
		</g>
		<g id="XMLID_171_">
			
				<rect id="XMLID_172_" x="-80.6" y="372.2" transform="matrix(0.8736 0.4866 -0.4866 0.8736 171.1403 85.8043)" class="st12" width="2" height="0.4"/>
		</g>
		<g id="XMLID_169_">
			
				<rect id="XMLID_170_" x="-78.6" y="373.3" transform="matrix(0.8736 0.4866 -0.4866 0.8736 171.9584 84.9413)" class="st12" width="2" height="0.4"/>
		</g>
		<g id="XMLID_167_">
			
				<rect id="XMLID_168_" x="-80" y="371" transform="matrix(0.8736 0.4866 -0.4866 0.8736 170.6373 85.2983)" class="st12" width="2.1" height="0.4"/>
		</g>
		<g id="XMLID_165_">
			
				<rect id="XMLID_166_" x="-77.9" y="372.2" transform="matrix(0.8737 0.4865 -0.4865 0.8737 171.4516 84.4313)" class="st12" width="2.1" height="0.4"/>
		</g>
		<g id="XMLID_163_">
			
				<rect id="XMLID_164_" x="-79.3" y="369.8" transform="matrix(0.8737 0.4865 -0.4865 0.8737 170.1053 84.8272)" class="st12" width="2" height="0.4"/>
		</g>
		<g id="XMLID_161_">
			
				<rect id="XMLID_162_" x="-77.3" y="370.9" transform="matrix(0.8737 0.4865 -0.4865 0.8737 170.8813 83.984)" class="st12" width="2" height="0.4"/>
		</g>
		<g id="XMLID_158_">
			<g id="XMLID_159_">
				<path id="XMLID_160_" class="st12" d="M-81.8,373.5c-0.2-0.1-0.3-0.3-0.4-0.5c-0.1-0.2,0-0.5,0.1-0.7c0,0,0.2-0.3,0.4-0.7
					c0.3-0.4,0.7-1,1.2-1.6c0.5-0.6,1.2-1.2,1.9-1.5c0.4-0.2,0.8-0.3,1.1-0.4c0.3-0.1,0.7-0.1,0.9,0c0.1,0,0.3,0,0.4,0l0.2,0
					c0,0,0.1,0,0.1,0c0.2,0,0.4,0,0.6-0.1c0.5-0.2,1-0.7,1.4-1.2c0.8-1,1.4-2.1,1.4-2.1c0.3-0.5,0.8-0.7,1.2-0.5
					c0.4,0.2,0.5,0.8,0.2,1.3c0,0-0.6,1-1.6,2c-0.5,0.5-1.1,1-1.7,1.4c-0.3,0.2-0.7,0.3-1,0.3c-0.3,0.1-0.6,0-0.9,0l-0.2,0
					c-0.1,0-0.1,0-0.2,0c-0.1,0-0.2,0-0.4,0c-0.3,0-0.6,0.1-0.8,0.2c-0.6,0.2-1.2,0.7-1.6,1.3c-0.5,0.5-0.8,1.1-1,1.6
					c-0.2,0.4-0.4,0.7-0.4,0.7c-0.1,0.2-0.3,0.4-0.5,0.5C-81.4,373.6-81.6,373.6-81.8,373.5z"/>
			</g>
		</g>
	</g>
	<defs>
		<filter id="Adobe_OpacityMaskFilter_4_" filterUnits="userSpaceOnUse" x="-82.2" y="375.8" width="11.5" height="14">
			<feColorMatrix  type="matrix" values="1 0 0 0 0  0 1 0 0 0  0 0 1 0 0  0 0 0 1 0"/>
		</filter>
	</defs>
	<mask maskUnits="userSpaceOnUse" x="-82.2" y="375.8" width="11.5" height="14" id="XMLID_289_">
		<g id="XMLID_94_" class="st16">
			<linearGradient id="XMLID_290_" gradientUnits="userSpaceOnUse" x1="-79.8945" y1="389.8593" x2="-79.8945" y2="375.756">
				<stop  offset="0.5435" style="stop-color:#000000"/>
				<stop  offset="0.6507" style="stop-color:#030303"/>
				<stop  offset="0.7402" style="stop-color:#0E0E0E"/>
				<stop  offset="0.8232" style="stop-color:#1F1F1F"/>
				<stop  offset="0.9024" style="stop-color:#373737"/>
				<stop  offset="0.9782" style="stop-color:#575757"/>
				<stop  offset="1" style="stop-color:#616161"/>
			</linearGradient>
			<rect id="XMLID_96_" x="-88.2" y="375.8" class="st17" width="16.6" height="14.1"/>
		</g>
	</mask>
	<g id="XMLID_90_" class="st18">
		<g id="XMLID_154_">
			<g id="XMLID_155_">
				<path id="XMLID_156_" class="st12" d="M-77.6,375.8c-0.1,0.1-0.2,0.3-0.2,0.5c0,0.2,0.1,0.5,0.2,0.7c0,0,0.2,0.3,0.4,0.7
					c0.2,0.4,0.5,1,0.7,1.6c0.2,0.6,0.3,1.3,0.3,1.9c0,0.6-0.3,1.1-0.5,1.3c-0.1,0.1-0.1,0.1-0.2,0.2l-0.1,0.1
					c-0.1,0.1-0.1,0.1-0.2,0.2c-0.2,0.3-0.4,0.7-0.5,1.1c-0.1,0.8,0,1.7,0.2,2.4c0.2,0.7,0.5,1.4,0.7,1.8c0.2,0.5,0.4,0.7,0.4,0.7
					c0.3,0.5,0.8,0.8,1,0.6c0.3-0.2,0.3-0.7,0-1.1c0,0-0.6-0.9-1-2.1c-0.2-0.6-0.4-1.2-0.4-1.8c0-0.6,0.2-1,0.4-1.2l0.1-0.1
					c0-0.1,0.1-0.1,0.1-0.2c0.1-0.1,0.2-0.3,0.3-0.4c0.2-0.3,0.3-0.7,0.4-1.1c0.2-0.8,0.1-1.7-0.1-2.5c-0.2-0.8-0.5-1.5-0.7-2
					c-0.2-0.5-0.4-0.8-0.4-0.8c-0.1-0.2-0.3-0.4-0.5-0.5C-77.2,375.7-77.4,375.7-77.6,375.8z"/>
			</g>
		</g>
		<g id="XMLID_152_">
			
				<rect id="XMLID_153_" x="-77.2" y="385" transform="matrix(0.8736 -0.4866 0.4866 0.8736 -197.0897 11.5411)" class="st12" width="1.8" height="0.4"/>
		</g>
		<g id="XMLID_147_">
			
				<rect id="XMLID_149_" x="-75.4" y="384.1" transform="matrix(0.8736 -0.4867 0.4867 0.8736 -196.4568 12.2571)" class="st12" width="1.5" height="0.4"/>
		</g>
		<g id="XMLID_143_">
			
				<rect id="XMLID_145_" x="-76.5" y="386.3" transform="matrix(0.8738 -0.4863 0.4863 0.8738 -197.4981 11.9859)" class="st12" width="1.7" height="0.4"/>
		</g>
		<g id="XMLID_139_">
			
				<rect id="XMLID_141_" x="-74.7" y="385.4" transform="matrix(0.8737 -0.4864 0.4864 0.8737 -196.8596 12.7081)" class="st12" width="1.5" height="0.4"/>
		</g>
		<g id="XMLID_135_">
			
				<rect id="XMLID_137_" x="-75.9" y="387.5" transform="matrix(0.8736 -0.4866 0.4866 0.8736 -198.1429 12.5064)" class="st12" width="1.7" height="0.4"/>
		</g>
		<g id="XMLID_131_">
			
				<rect id="XMLID_133_" x="-74" y="386.5" transform="matrix(0.8736 -0.4866 0.4866 0.8736 -197.3771 13.2741)" class="st12" width="1.8" height="0.4"/>
		</g>
		<g id="XMLID_127_">
			
				<rect id="XMLID_129_" x="-80.6" y="378.9" transform="matrix(0.8737 -0.4865 0.4865 0.8737 -194.5079 9.1608)" class="st12" width="2" height="0.4"/>
		</g>
		<g id="XMLID_121_">
			
				<rect id="XMLID_125_" x="-78.5" y="377.8" transform="matrix(0.8736 -0.4866 0.4866 0.8736 -193.7153 10.0363)" class="st12" width="2" height="0.4"/>
		</g>
		<g id="XMLID_116_">
			
				<rect id="XMLID_118_" x="-79.9" y="380.1" transform="matrix(0.8736 -0.4866 0.4866 0.8736 -195.0432 9.6792)" class="st12" width="2.1" height="0.4"/>
		</g>
		<g id="XMLID_112_">
			
				<rect id="XMLID_114_" x="-77.9" y="379" transform="matrix(0.8736 -0.4866 0.4866 0.8736 -194.1933 10.5284)" class="st12" width="2.1" height="0.4"/>
		</g>
		<g id="XMLID_108_">
			
				<rect id="XMLID_110_" x="-79.3" y="381.4" transform="matrix(0.8736 -0.4866 0.4866 0.8736 -195.532 10.1262)" class="st12" width="2" height="0.4"/>
		</g>
		<g id="XMLID_104_">
			
				<rect id="XMLID_106_" x="-77.3" y="380.3" transform="matrix(0.8737 -0.4865 0.4865 0.8737 -194.7042 10.9486)" class="st12" width="2" height="0.4"/>
		</g>
		<g id="XMLID_98_">
			<g id="XMLID_100_">
				<path id="XMLID_102_" class="st12" d="M-81.8,378c-0.2,0.1-0.3,0.3-0.4,0.5c-0.1,0.2,0,0.5,0.1,0.7c0,0,0.2,0.3,0.4,0.7
					c0.3,0.4,0.7,1,1.2,1.6c0.5,0.6,1.2,1.2,1.9,1.5c0.4,0.2,0.8,0.3,1.1,0.4c0.3,0.1,0.7,0.1,0.9,0c0.1,0,0.3,0,0.4,0l0.2,0
					c0,0,0.1,0,0.1,0c0.2,0,0.4,0,0.6,0.1c0.5,0.2,1,0.7,1.4,1.2c0.8,1,1.4,2.1,1.4,2.1c0.3,0.5,0.8,0.7,1.2,0.5
					c0.4-0.2,0.5-0.8,0.2-1.3c0,0-0.6-1-1.6-2c-0.5-0.5-1.1-1-1.7-1.4c-0.3-0.2-0.7-0.3-1-0.3c-0.3-0.1-0.6,0-0.9,0l-0.2,0
					c-0.1,0-0.1,0-0.2,0c-0.1,0-0.2,0-0.4,0c-0.3,0-0.6-0.1-0.8-0.2c-0.6-0.2-1.2-0.7-1.6-1.3c-0.5-0.5-0.8-1.1-1-1.6
					c-0.2-0.4-0.4-0.7-0.4-0.7c-0.1-0.2-0.3-0.4-0.5-0.5C-81.4,378-81.6,377.9-81.8,378z"/>
			</g>
		</g>
	</g>
</g>
<g id="XMLID_188_" class="st11">
	<g id="XMLID_222_">
		<g id="XMLID_250_">
			<g id="XMLID_251_">
				<path id="XMLID_252_" class="st12" d="M-151.5,482.4c-0.1-0.1-0.2-0.3-0.2-0.5c0-0.2,0.1-0.5,0.2-0.7c0,0,0.2-0.3,0.4-0.7
					c0.2-0.4,0.5-1,0.7-1.6c0.2-0.6,0.3-1.3,0.3-1.9c0-0.6-0.3-1.1-0.5-1.3c-0.1-0.1-0.1-0.1-0.2-0.2l-0.1-0.1
					c-0.1-0.1-0.1-0.1-0.2-0.2c-0.2-0.3-0.4-0.7-0.5-1.1c-0.1-0.8,0-1.7,0.2-2.4c0.2-0.7,0.5-1.4,0.7-1.8c0.2-0.5,0.4-0.7,0.4-0.7
					c0.3-0.5,0.8-0.8,1-0.6c0.3,0.2,0.3,0.7,0,1.1c0,0-0.6,0.9-1,2.1c-0.2,0.6-0.4,1.2-0.4,1.8c0,0.6,0.2,1,0.4,1.2l0.1,0.1
					c0,0.1,0.1,0.1,0.1,0.2c0.1,0.1,0.2,0.3,0.3,0.4c0.2,0.3,0.3,0.7,0.4,1.1c0.2,0.8,0.1,1.7-0.1,2.5c-0.2,0.8-0.5,1.5-0.7,2
					c-0.2,0.5-0.4,0.8-0.4,0.8c-0.1,0.2-0.3,0.4-0.5,0.5C-151.2,482.5-151.3,482.5-151.5,482.4z"/>
			</g>
		</g>
		<g id="XMLID_248_">
			
				<rect id="XMLID_249_" x="-151.1" y="472.8" transform="matrix(0.8736 0.4866 -0.4866 0.8736 211.1822 132.8882)" class="st12" width="1.8" height="0.4"/>
		</g>
		<g id="XMLID_246_">
			
				<rect id="XMLID_247_" x="-149.3" y="473.8" transform="matrix(0.8736 0.4866 -0.4866 0.8736 211.8459 132.1764)" class="st12" width="1.5" height="0.4"/>
		</g>
		<g id="XMLID_244_">
			
				<rect id="XMLID_245_" x="-150.4" y="471.6" transform="matrix(0.8738 0.4863 -0.4863 0.8738 210.5437 132.2894)" class="st12" width="1.7" height="0.4"/>
		</g>
		<g id="XMLID_242_">
			
				<rect id="XMLID_243_" x="-148.6" y="472.5" transform="matrix(0.8738 0.4864 -0.4864 0.8738 211.2298 131.5892)" class="st12" width="1.5" height="0.4"/>
		</g>
		<g id="XMLID_240_">
			
				<rect id="XMLID_241_" x="-149.8" y="470.4" transform="matrix(0.8736 0.4866 -0.4866 0.8736 210.1459 131.922)" class="st12" width="1.7" height="0.4"/>
		</g>
		<g id="XMLID_238_">
			
				<rect id="XMLID_239_" x="-148" y="471.4" transform="matrix(0.8736 0.4866 -0.4866 0.8736 210.8887 131.1482)" class="st12" width="1.8" height="0.4"/>
		</g>
		<g id="XMLID_236_">
			
				<rect id="XMLID_237_" x="-154.5" y="479" transform="matrix(0.8736 0.4866 -0.4866 0.8736 213.7377 135.2477)" class="st12" width="2" height="0.4"/>
		</g>
		<g id="XMLID_234_">
			
				<rect id="XMLID_235_" x="-152.5" y="480.1" transform="matrix(0.8736 0.4866 -0.4866 0.8736 214.5574 134.388)" class="st12" width="2" height="0.4"/>
		</g>
		<g id="XMLID_232_">
			
				<rect id="XMLID_233_" x="-153.9" y="477.7" transform="matrix(0.8736 0.4866 -0.4866 0.8736 213.2355 134.7433)" class="st12" width="2.1" height="0.4"/>
		</g>
		<g id="XMLID_230_">
			
				<rect id="XMLID_231_" x="-151.8" y="478.9" transform="matrix(0.8737 0.4865 -0.4865 0.8737 214.0474 133.8714)" class="st12" width="2.1" height="0.4"/>
		</g>
		<g id="XMLID_228_">
			
				<rect id="XMLID_229_" x="-153.2" y="476.5" transform="matrix(0.8737 0.4865 -0.4865 0.8737 212.6997 134.2646)" class="st12" width="2" height="0.4"/>
		</g>
		<g id="XMLID_226_">
			
				<rect id="XMLID_227_" x="-151.2" y="477.6" transform="matrix(0.8737 0.4865 -0.4865 0.8737 213.4741 133.4182)" class="st12" width="2" height="0.4"/>
		</g>
		<g id="XMLID_223_">
			<g id="XMLID_224_">
				<path id="XMLID_225_" class="st12" d="M-155.7,480.2c-0.2-0.1-0.3-0.3-0.4-0.5c-0.1-0.2,0-0.5,0.1-0.7c0,0,0.2-0.3,0.4-0.7
					c0.3-0.4,0.7-1,1.2-1.6c0.5-0.6,1.2-1.2,1.9-1.5c0.4-0.2,0.8-0.3,1.1-0.4c0.3-0.1,0.7-0.1,0.9,0c0.1,0,0.3,0,0.4,0l0.2,0
					c0,0,0.1,0,0.1,0c0.2,0,0.4,0,0.6-0.1c0.5-0.2,1-0.7,1.4-1.2c0.8-1,1.4-2.1,1.4-2.1c0.3-0.5,0.8-0.7,1.2-0.5
					c0.4,0.2,0.5,0.8,0.2,1.3c0,0-0.6,1-1.6,2c-0.5,0.5-1.1,1-1.7,1.4c-0.3,0.2-0.7,0.3-1,0.3c-0.3,0.1-0.6,0-0.9,0l-0.2,0
					c-0.1,0-0.1,0-0.2,0c-0.1,0-0.2,0-0.4,0c-0.3,0-0.6,0.1-0.8,0.2c-0.6,0.2-1.2,0.7-1.6,1.3c-0.5,0.5-0.8,1.1-1,1.6
					c-0.2,0.4-0.4,0.7-0.4,0.7c-0.1,0.2-0.3,0.4-0.5,0.5C-155.3,480.3-155.5,480.3-155.7,480.2z"/>
			</g>
		</g>
	</g>
	<defs>
		<filter id="Adobe_OpacityMaskFilter_5_" filterUnits="userSpaceOnUse" x="-156.1" y="482.5" width="11.5" height="14">
			<feColorMatrix  type="matrix" values="1 0 0 0 0  0 1 0 0 0  0 0 1 0 0  0 0 0 1 0"/>
		</filter>
	</defs>
	<mask maskUnits="userSpaceOnUse" x="-156.1" y="482.5" width="11.5" height="14" id="XMLID_291_">
		<g id="XMLID_190_" class="st19">
			<linearGradient id="XMLID_292_" gradientUnits="userSpaceOnUse" x1="-153.793" y1="496.5969" x2="-153.793" y2="482.4937">
				<stop  offset="0.5435" style="stop-color:#000000"/>
				<stop  offset="0.6507" style="stop-color:#030303"/>
				<stop  offset="0.7402" style="stop-color:#0E0E0E"/>
				<stop  offset="0.8232" style="stop-color:#1F1F1F"/>
				<stop  offset="0.9024" style="stop-color:#373737"/>
				<stop  offset="0.9782" style="stop-color:#575757"/>
				<stop  offset="1" style="stop-color:#616161"/>
			</linearGradient>
			<rect id="XMLID_191_" x="-162.1" y="482.5" class="st20" width="16.6" height="14.1"/>
		</g>
	</mask>
	<g id="XMLID_189_" class="st21">
		<g id="XMLID_219_">
			<g id="XMLID_220_">
				<path id="XMLID_221_" class="st12" d="M-151.5,482.5c-0.1,0.1-0.2,0.3-0.2,0.5c0,0.2,0.1,0.5,0.2,0.7c0,0,0.2,0.3,0.4,0.7
					c0.2,0.4,0.5,1,0.7,1.6c0.2,0.6,0.3,1.3,0.3,1.9c0,0.6-0.3,1.1-0.5,1.3c-0.1,0.1-0.1,0.1-0.2,0.2l-0.1,0.1
					c-0.1,0.1-0.1,0.1-0.2,0.2c-0.2,0.3-0.4,0.7-0.5,1.1c-0.1,0.8,0,1.7,0.2,2.4c0.2,0.7,0.5,1.4,0.7,1.8c0.2,0.5,0.4,0.7,0.4,0.7
					c0.3,0.5,0.8,0.8,1,0.6c0.3-0.2,0.3-0.7,0-1.1c0,0-0.6-0.9-1-2.1c-0.2-0.6-0.4-1.2-0.4-1.8c0-0.6,0.2-1,0.4-1.2l0.1-0.1
					c0-0.1,0.1-0.1,0.1-0.2c0.1-0.1,0.2-0.3,0.3-0.4c0.2-0.3,0.3-0.7,0.4-1.1c0.2-0.8,0.1-1.7-0.1-2.5c-0.2-0.8-0.5-1.5-0.7-2
					c-0.2-0.5-0.4-0.8-0.4-0.8c-0.1-0.2-0.3-0.4-0.5-0.5C-151.1,482.5-151.3,482.5-151.5,482.5z"/>
			</g>
		</g>
		<g id="XMLID_217_">
			
				<rect id="XMLID_218_" x="-151.1" y="491.8" transform="matrix(0.8736 -0.4866 0.4866 0.8736 -258.363 -10.9285)" class="st12" width="1.8" height="0.4"/>
		</g>
		<g id="XMLID_215_">
			
				<rect id="XMLID_216_" x="-149.3" y="490.8" transform="matrix(0.8736 -0.4867 0.4867 0.8736 -257.7435 -10.2138)" class="st12" width="1.5" height="0.4"/>
		</g>
		<g id="XMLID_213_">
			
				<rect id="XMLID_214_" x="-150.4" y="493" transform="matrix(0.8738 -0.4863 0.4863 0.8738 -258.7292 -10.4796)" class="st12" width="1.7" height="0.4"/>
		</g>
		<g id="XMLID_211_">
			
				<rect id="XMLID_212_" x="-148.6" y="492.1" transform="matrix(0.8737 -0.4864 0.4864 0.8737 -258.104 -9.7587)" class="st12" width="1.5" height="0.4"/>
		</g>
		<g id="XMLID_209_">
			
				<rect id="XMLID_210_" x="-149.8" y="494.2" transform="matrix(0.8736 -0.4866 0.4866 0.8736 -259.425 -9.9641)" class="st12" width="1.7" height="0.4"/>
		</g>
		<g id="XMLID_207_">
			
				<rect id="XMLID_208_" x="-147.9" y="493.2" transform="matrix(0.8736 -0.4866 0.4866 0.8736 -258.6506 -9.1956)" class="st12" width="1.8" height="0.4"/>
		</g>
		<g id="XMLID_205_">
			
				<rect id="XMLID_206_" x="-154.5" y="485.6" transform="matrix(0.8737 -0.4865 0.4865 0.8737 -255.7778 -13.3085)" class="st12" width="2" height="0.4"/>
		</g>
		<g id="XMLID_203_">
			
				<rect id="XMLID_204_" x="-152.4" y="484.5" transform="matrix(0.8736 -0.4866 0.4866 0.8736 -254.9913 -12.4336)" class="st12" width="2" height="0.4"/>
		</g>
		<g id="XMLID_201_">
			
				<rect id="XMLID_202_" x="-153.8" y="486.9" transform="matrix(0.8736 -0.4866 0.4866 0.8736 -256.323 -12.7911)" class="st12" width="2.1" height="0.4"/>
		</g>
		<g id="XMLID_199_">
			
				<rect id="XMLID_200_" x="-151.8" y="485.7" transform="matrix(0.8736 -0.4866 0.4866 0.8736 -255.4649 -11.9411)" class="st12" width="2.1" height="0.4"/>
		</g>
		<g id="XMLID_197_">
			
				<rect id="XMLID_198_" x="-153.2" y="488.1" transform="matrix(0.8736 -0.4866 0.4866 0.8736 -256.8034 -12.3433)" class="st12" width="2" height="0.4"/>
		</g>
		<g id="XMLID_195_">
			
				<rect id="XMLID_196_" x="-151.2" y="487" transform="matrix(0.8737 -0.4865 0.4865 0.8737 -255.9601 -11.5194)" class="st12" width="2" height="0.4"/>
		</g>
		<g id="XMLID_192_">
			<g id="XMLID_193_">
				<path id="XMLID_194_" class="st12" d="M-155.7,484.8c-0.2,0.1-0.3,0.3-0.4,0.5c-0.1,0.2,0,0.5,0.1,0.7c0,0,0.2,0.3,0.4,0.7
					c0.3,0.4,0.7,1,1.2,1.6c0.5,0.6,1.2,1.2,1.9,1.5c0.4,0.2,0.8,0.3,1.1,0.4c0.3,0.1,0.7,0.1,0.9,0c0.1,0,0.3,0,0.4,0l0.2,0
					c0,0,0.1,0,0.1,0c0.2,0,0.4,0,0.6,0.1c0.5,0.2,1,0.7,1.4,1.2c0.8,1,1.4,2.1,1.4,2.1c0.3,0.5,0.8,0.7,1.2,0.5
					c0.4-0.2,0.5-0.8,0.2-1.3c0,0-0.6-1-1.6-2c-0.5-0.5-1.1-1-1.7-1.4c-0.3-0.2-0.7-0.3-1-0.3c-0.3-0.1-0.6,0-0.9,0l-0.2,0
					c-0.1,0-0.1,0-0.2,0c-0.1,0-0.2,0-0.4,0c-0.3,0-0.6-0.1-0.8-0.2c-0.6-0.2-1.2-0.7-1.6-1.3c-0.5-0.5-0.8-1.1-1-1.6
					c-0.2-0.4-0.4-0.7-0.4-0.7c-0.1-0.2-0.3-0.4-0.5-0.5C-155.3,484.7-155.5,484.7-155.7,484.8z"/>
			</g>
		</g>
	</g>
</g>
<g id="XMLID_259_" class="st0">
	<path id="XMLID_265_" class="st22" d="M-94.2,286.1l-3.5,6.1l-0.2-0.1l-1.9,2.5l0.2,0.1l-0.2,0.3l-0.8-0.5c-0.1,0-0.2-0.1-0.3,0
		c-0.1,0-0.2,0.1-0.2,0.2l-4.6,8.1l-1-0.4l-0.2,0.3l0.9,0.5l0.8,0.4l-1.8,3.1l-0.9-0.2l-0.3,0.5l1.7,1l1.7,1l0.3-0.5l-0.6-0.7
		l1.8-3.1l0.8,0.4l0.9,0.5l0.2-0.3l-0.8-0.6l4.6-8.1c0-0.1,0.1-0.2,0-0.3c0-0.1-0.1-0.2-0.2-0.2l-0.8-0.5l0.2-0.3l0.2,0.1l1.2-2.9
		l-0.2-0.1l2.8-5L-94.2,286.1z M-98.2,296.5l-4.5,8l-0.3-0.2l-1.8-1l-0.3-0.2l1.1-2l0.3,0.2l1.4,0.8l0.2-0.3l-1.4-0.8l-0.3-0.2
		l0.4-0.8l0.3,0.2l1.4,0.8l0.2-0.3l-1.4-0.8l-0.3-0.2l0.4-0.8l1.7,1l0.2-0.3l-1.7-1l0.4-0.8l1.7,1l0.2-0.3l-1.7-1l0.4-0.8l1.7,1
		l0.2-0.3l-1.7-1l0.6-1.1l0.7,0.4l1.1,0.6L-98.2,296.5z"/>
	<defs>
		<filter id="Adobe_OpacityMaskFilter_6_" filterUnits="userSpaceOnUse" x="-108.1" y="309" width="13.9" height="22.9">
			<feColorMatrix  type="matrix" values="1 0 0 0 0  0 1 0 0 0  0 0 1 0 0  0 0 0 1 0"/>
		</filter>
	</defs>
	<mask maskUnits="userSpaceOnUse" x="-108.1" y="309" width="13.9" height="22.9" id="XMLID_293_">
		<g id="XMLID_260_" class="st23">
			<linearGradient id="XMLID_294_" gradientUnits="userSpaceOnUse" x1="-103.7176" y1="331.5978" x2="-103.7176" y2="308.9955">
				<stop  offset="0.5435" style="stop-color:#000000"/>
				<stop  offset="0.6507" style="stop-color:#030303"/>
				<stop  offset="0.7402" style="stop-color:#0E0E0E"/>
				<stop  offset="0.8232" style="stop-color:#1F1F1F"/>
				<stop  offset="0.9024" style="stop-color:#373737"/>
				<stop  offset="0.9782" style="stop-color:#575757"/>
				<stop  offset="1" style="stop-color:#616161"/>
			</linearGradient>
			<rect id="XMLID_253_" x="-117" y="309" class="st24" width="26.5" height="22.6"/>
		</g>
	</mask>
	<path id="XMLID_262_" class="st25" d="M-94.5,330.6l-2.8-5l0.2-0.1l-1.2-2.9l-0.2,0.1l-0.2-0.3l0.8-0.5c0.1,0,0.1-0.1,0.2-0.2
		c0-0.1,0-0.2,0-0.3l-4.6-8.1l0.8-0.6l-0.2-0.3l-0.9,0.5l-0.8,0.4l-1.8-3.1l0.6-0.7l-0.3-0.5l-1.7,1l-1.7,1l0.3,0.5l0.9-0.2l1.8,3.1
		l-0.8,0.4l-0.9,0.5l0.2,0.3l1-0.4l4.6,8.1c0,0.1,0.1,0.1,0.2,0.2c0.1,0,0.2,0,0.3,0l0.8-0.5l0.2,0.3l-0.2,0.1l1.9,2.5l0.2-0.1
		l3.5,6.1L-94.5,330.6z M-98.9,321.9l-1.1,0.6l-0.7,0.4l-0.6-1.1l1.7-1l-0.2-0.3l-1.7,1l-0.4-0.8l1.7-1l-0.2-0.3l-1.7,1l-0.4-0.8
		l1.7-1l-0.2-0.3l-1.7,1l-0.4-0.8l0.3-0.2l1.4-0.8l-0.2-0.3l-1.4,0.8l-0.3,0.2l-0.4-0.8l0.3-0.2l1.4-0.8l-0.2-0.3l-1.4,0.8l-0.3,0.2
		l-1.1-2l0.3-0.2l1.8-1l0.3-0.2l4.5,8L-98.9,321.9z"/>
</g>
<g id="XMLID_258_" class="st0">
	<path id="XMLID_268_" class="st22" d="M-155,381.3l-3.5,6.1l-0.2-0.1l-1.9,2.5l0.2,0.1l-0.2,0.3l-0.8-0.5c-0.1,0-0.2-0.1-0.3,0
		c-0.1,0-0.2,0.1-0.2,0.2l-4.6,8.1l-1-0.4l-0.2,0.3l0.9,0.5l0.8,0.4l-1.8,3.1l-0.9-0.2l-0.3,0.5l1.7,1l1.7,1l0.3-0.5l-0.6-0.7
		l1.8-3.1l0.8,0.4l0.9,0.5l0.2-0.3l-0.8-0.6l4.6-8.1c0-0.1,0.1-0.2,0-0.3c0-0.1-0.1-0.2-0.2-0.2l-0.8-0.5l0.2-0.3l0.2,0.1l1.2-2.9
		l-0.2-0.1l2.8-5L-155,381.3z M-159,391.7l-4.5,8l-0.3-0.2l-1.8-1l-0.3-0.2l1.1-2l0.3,0.2l1.4,0.8l0.2-0.3l-1.4-0.8l-0.3-0.2
		l0.4-0.8l0.3,0.2l1.4,0.8l0.2-0.3l-1.4-0.8l-0.3-0.2l0.4-0.8l1.7,1l0.2-0.3l-1.7-1l0.4-0.8l1.7,1l0.2-0.3l-1.7-1l0.4-0.8l1.7,1
		l0.2-0.3l-1.7-1l0.6-1.1l0.7,0.4l1.1,0.6L-159,391.7z"/>
	<defs>
		<filter id="Adobe_OpacityMaskFilter_7_" filterUnits="userSpaceOnUse" x="-168.9" y="404.3" width="13.9" height="22.9">
			<feColorMatrix  type="matrix" values="1 0 0 0 0  0 1 0 0 0  0 0 1 0 0  0 0 0 1 0"/>
		</filter>
	</defs>
	<mask maskUnits="userSpaceOnUse" x="-168.9" y="404.3" width="13.9" height="22.9" id="XMLID_295_">
		<g id="XMLID_263_" class="st26">
			<linearGradient id="XMLID_296_" gradientUnits="userSpaceOnUse" x1="-164.5147" y1="426.8543" x2="-164.5147" y2="404.252">
				<stop  offset="0.5435" style="stop-color:#000000"/>
				<stop  offset="0.6507" style="stop-color:#030303"/>
				<stop  offset="0.7402" style="stop-color:#0E0E0E"/>
				<stop  offset="0.8232" style="stop-color:#1F1F1F"/>
				<stop  offset="0.9024" style="stop-color:#373737"/>
				<stop  offset="0.9782" style="stop-color:#575757"/>
				<stop  offset="1" style="stop-color:#616161"/>
			</linearGradient>
			<rect id="XMLID_264_" x="-177.8" y="404.3" class="st27" width="26.5" height="22.6"/>
		</g>
	</mask>
	<path id="XMLID_261_" class="st28" d="M-155.3,425.9l-2.8-5l0.2-0.1l-1.2-2.9l-0.2,0.1l-0.2-0.3l0.8-0.5c0.1,0,0.1-0.1,0.2-0.2
		c0-0.1,0-0.2,0-0.3l-4.6-8.1l0.8-0.6l-0.2-0.3l-0.9,0.5l-0.8,0.4l-1.8-3.1l0.6-0.7l-0.3-0.5l-1.7,1l-1.7,1l0.3,0.5l0.9-0.2l1.8,3.1
		l-0.8,0.4l-0.9,0.5l0.2,0.3l1-0.4l4.6,8.1c0,0.1,0.1,0.1,0.2,0.2c0.1,0,0.2,0,0.3,0l0.8-0.5l0.2,0.3l-0.2,0.1l1.9,2.5l0.2-0.1
		l3.5,6.1L-155.3,425.9z M-159.7,417.2l-1.1,0.6l-0.7,0.4l-0.6-1.1l1.7-1l-0.2-0.3l-1.7,1l-0.4-0.8l1.7-1l-0.2-0.3l-1.7,1l-0.4-0.8
		l1.7-1l-0.2-0.3l-1.7,1l-0.4-0.8l0.3-0.2l1.4-0.8l-0.2-0.3l-1.4,0.8l-0.3,0.2l-0.4-0.8l0.3-0.2l1.4-0.8l-0.2-0.3l-1.4,0.8l-0.3,0.2
		l-1.1-2l0.3-0.2l1.8-1l0.3-0.2l4.5,8L-159.7,417.2z"/>
</g>
<g id="XMLID_271_" class="st0">
	<path id="XMLID_277_" class="st22" d="M-23.3,418.3l-3.5,6.1l-0.2-0.1l-1.9,2.5l0.2,0.1l-0.2,0.3l-0.8-0.5c-0.1,0-0.2-0.1-0.3,0
		c-0.1,0-0.2,0.1-0.2,0.2l-4.6,8.1l-1-0.4l-0.2,0.3l0.9,0.5l0.8,0.4l-1.8,3.1l-0.9-0.2l-0.3,0.5l1.7,1l1.7,1l0.3-0.5l-0.6-0.7
		l1.8-3.1l0.8,0.4l0.9,0.5l0.2-0.3l-0.8-0.6l4.6-8.1c0-0.1,0.1-0.2,0-0.3c0-0.1-0.1-0.2-0.2-0.2l-0.8-0.5l0.2-0.3l0.2,0.1l1.2-2.9
		l-0.2-0.1l2.8-5L-23.3,418.3z M-27.3,428.7l-4.5,8l-0.3-0.2l-1.8-1l-0.3-0.2l1.1-2l0.3,0.2l1.4,0.8l0.2-0.3l-1.4-0.8l-0.3-0.2
		l0.4-0.8l0.3,0.2l1.4,0.8l0.2-0.3L-32,432l-0.3-0.2l0.4-0.8l1.7,1l0.2-0.3l-1.7-1l0.4-0.8l1.7,1l0.2-0.3l-1.7-1l0.4-0.8l1.7,1
		l0.2-0.3l-1.7-1l0.6-1.1l0.7,0.4l1.1,0.6L-27.3,428.7z"/>
	<defs>
		<filter id="Adobe_OpacityMaskFilter_8_" filterUnits="userSpaceOnUse" x="-37.2" y="441.3" width="13.9" height="22.9">
			<feColorMatrix  type="matrix" values="1 0 0 0 0  0 1 0 0 0  0 0 1 0 0  0 0 0 1 0"/>
		</filter>
	</defs>
	<mask maskUnits="userSpaceOnUse" x="-37.2" y="441.3" width="13.9" height="22.9" id="XMLID_297_">
		<g id="XMLID_273_" class="st29">
			<linearGradient id="XMLID_298_" gradientUnits="userSpaceOnUse" x1="-32.8138" y1="463.8502" x2="-32.8138" y2="441.2478">
				<stop  offset="0.5435" style="stop-color:#000000"/>
				<stop  offset="0.6507" style="stop-color:#030303"/>
				<stop  offset="0.7402" style="stop-color:#0E0E0E"/>
				<stop  offset="0.8232" style="stop-color:#1F1F1F"/>
				<stop  offset="0.9024" style="stop-color:#373737"/>
				<stop  offset="0.9782" style="stop-color:#575757"/>
				<stop  offset="1" style="stop-color:#616161"/>
			</linearGradient>
			<rect id="XMLID_274_" x="-46.1" y="441.2" class="st30" width="26.5" height="22.6"/>
		</g>
	</mask>
	<path id="XMLID_272_" class="st31" d="M-23.6,462.9l-2.8-5l0.2-0.1l-1.2-2.9l-0.2,0.1l-0.2-0.3l0.8-0.5c0.1,0,0.1-0.1,0.2-0.2
		c0-0.1,0-0.2,0-0.3l-4.6-8.1l0.8-0.6l-0.2-0.3l-0.9,0.5l-0.8,0.4l-1.8-3.1l0.6-0.7l-0.3-0.5l-1.7,1l-1.7,1l0.3,0.5l0.9-0.2l1.8,3.1
		L-35,447l-0.9,0.5l0.2,0.3l1-0.4l4.6,8.1c0,0.1,0.1,0.1,0.2,0.2c0.1,0,0.2,0,0.3,0l0.8-0.5l0.2,0.3l-0.2,0.1l1.9,2.5l0.2-0.1
		l3.5,6.1L-23.6,462.9z M-28,454.2l-1.1,0.6l-0.7,0.4l-0.6-1.1l1.7-1l-0.2-0.3l-1.7,1l-0.4-0.8l1.7-1l-0.2-0.3l-1.7,1l-0.4-0.8
		l1.7-1l-0.2-0.3l-1.7,1l-0.4-0.8l0.3-0.2l1.4-0.8l-0.2-0.3l-1.4,0.8l-0.3,0.2l-0.4-0.8l0.3-0.2l1.4-0.8l-0.2-0.3l-1.4,0.8l-0.3,0.2
		l-1.1-2l0.3-0.2l1.8-1l0.3-0.2l4.5,8L-28,454.2z"/>
</g>
</svg>
